<?xml version="1.0" encoding="UTF-8" standalone="no"?>
<svg
   id="Layer_1"
   viewBox="0 0 960 640"
   version="1.1"
   sodipodi:docname="01-templates.svg"
   inkscape:version="1.2.1 (9c6d41e4, 2022-07-14)"
   xmlns:inkscape="http://www.inkscape.org/namespaces/inkscape"
   xmlns:sodipodi="http://sodipodi.sourceforge.net/DTD/sodipodi-0.dtd"
   xmlns="http://www.w3.org/2000/svg"
   xmlns:svg="http://www.w3.org/2000/svg">
  <defs
     id="defs2045">
    <rect
       x="259.66102"
       y="551.18644"
       width="157.9661"
       height="35.932203"
       id="rect2355" />
  </defs>
  <sodipodi:namedview
     id="namedview2043"
     pagecolor="#ffffff"
     bordercolor="#000000"
     borderopacity="0.25"
     inkscape:showpageshadow="2"
     inkscape:pageopacity="0.0"
     inkscape:pagecheckerboard="0"
     inkscape:deskcolor="#d1d1d1"
     showgrid="false"
     inkscape:zoom="1.0429825"
     inkscape:cx="581.98484"
     inkscape:cy="367.69553"
     inkscape:window-width="1680"
     inkscape:window-height="997"
     inkscape:window-x="0"
     inkscape:window-y="25"
     inkscape:window-maximized="1"
     inkscape:current-layer="Layer_1" />
  <style
     id="style2008">.st0{fill:#FFD419;} .st1{fill:#004A1E;} .st2{fill:#DADADA;} .st3{fill:#FFFFFF;} .st4{fill:#0B0B0B;} .st5{fill:#00823B;} .st6{fill:#8C8C8C;}</style>
  <path
     class="st0"
     d="M587 266.9v215.7H53.1V266.9H587m4-4H49.1v223.7H591V262.9z"
     id="path2010" />
  <path
     class="st1"
     d="M55 541h190.9v60.7H55z"
     id="path2012" />
  <path
     class="st2"
     d="M0 40V10C0 4.5 4.5 0 10 0h940c5.5 0 10 4.5 10 10v30"
     id="path2016" />
  <circle
     class="st3"
     cx="25.4"
     cy="20"
     r="8.5"
     id="circle2018" />
  <circle
     class="st3"
     cx="49.1"
     cy="20"
     r="8.5"
     id="circle2020" />
  <circle
     class="st3"
     cx="72.9"
     cy="20"
     r="8.5"
     id="circle2022" />
  <path
     class="st4"
     d="M1 40h958v65H1z"
     id="path2024" />
  <path
     class="st3"
     d="M267 59.7l-10.7 13v-13h-6.1v30h6.1v-9.1l3.9-4.3 7.9 13.4h7l-11-18.1 10.4-11.9zm-37.4 24.6c-.8-.3-1.4-.6-2-1.2-.6-.5-1-1.2-1.3-2-.3-.8-.5-1.7-.5-2.8V59.7h-6v19.5c0 1.7.3 3.2.9 4.5.6 1.4 1.5 2.5 2.5 3.4 1.1.9 2.4 1.7 3.9 2.2 1.5.5 3.1.8 4.9.8 1.8 0 3.4-.3 4.9-.8 1.5-.5 2.8-1.2 3.9-2.2 1.1-.9 1.9-2.1 2.5-3.4.6-1.4.9-2.9.9-4.5V59.7h-6v18.6c0 1.1-.2 2-.5 2.8-.3.8-.8 1.5-1.3 2-.6.5-1.2.9-2 1.2-.8.3-1.6.4-2.5.4-.7 0-1.5-.2-2.3-.4m-21.9 3.5c.2.5.5.9.8 1.2.3.3.8.6 1.2.8.5.2 1 .3 1.5.3s1-.1 1.5-.3c.5-.2.9-.5 1.2-.8.3-.3.6-.8.8-1.2.2-.5.3-1 .3-1.5s-.1-1-.3-1.5c-.2-.5-.5-.9-.8-1.2-.3-.3-.8-.6-1.2-.8-.5-.2-.9-.3-1.5-.3-.5 0-1 .1-1.5.3-.5.2-.9.5-1.2.8-.3.3-.6.7-.8 1.2-.2.5-.3.9-.3 1.5s.1 1 .3 1.5m-9.6 1.9l8.5-30h-6.7l-5.7 22.6h-.2l-5.8-22.6h-6.8l8.5 30zm-36.8-5.8c-1-.5-1.8-1.2-2.5-2.1-.7-.9-1.2-1.9-1.5-3.1-.3-1.2-.5-2.5-.5-3.9v-.2c0-1.4.2-2.7.5-3.9.3-1.2.9-2.2 1.5-3.1.7-.9 1.5-1.6 2.5-2.1s2.2-.7 3.5-.7c1.3 0 2.5.2 3.5.7 1 .5 1.8 1.2 2.5 2.1.7.9 1.2 1.9 1.5 3.1.3 1.2.5 2.5.5 3.9v.2c0 1.4-.2 2.7-.5 3.9-.3 1.2-.9 2.2-1.5 3.1-.7.9-1.5 1.6-2.5 2.1s-2.2.7-3.5.7c-1.3.1-2.5-.2-3.5-.7m-2.5-23.4c-1.8.8-3.3 1.9-4.5 3.3-1.2 1.4-2.2 3-2.8 4.9-.6 1.9-1 3.9-1 6 0 2.2.3 4.2 1 6 .6 1.9 1.6 3.5 2.8 4.9 1.2 1.4 2.7 2.5 4.5 3.3 1.8.8 3.8 1.2 6 1.2s4.2-.4 6-1.2c1.8-.8 3.3-1.9 4.5-3.3 1.2-1.4 2.2-3 2.8-4.9.6-1.9 1-3.9 1-6s-.3-4.2-1-6c-.6-1.9-1.6-3.5-2.8-4.9-1.2-1.4-2.7-2.5-4.5-3.3-1.8-.8-3.8-1.2-6-1.2-2.3 0-4.3.4-6 1.2m-33.1 14.1c0-1.3.2-2.5.5-3.7.3-1.2.8-2.2 1.5-3.1.7-.9 1.5-1.6 2.5-2.2 1-.6 2.2-.8 3.6-.8.9 0 1.7.1 2.4.3.7.2 1.4.5 1.9.9.6.4 1.1.9 1.5 1.4.4.5.8 1.1 1.1 1.8l5.3-3c-.5-1-1.2-2-2-2.9-.8-.9-1.7-1.6-2.8-2.2-1.1-.6-2.2-1.1-3.5-1.4-1.3-.3-2.6-.5-4-.5-2.2 0-4.2.4-5.9 1.2-1.8.8-3.3 1.9-4.5 3.3-1.2 1.4-2.2 3-2.9 4.9-.7 1.9-1 3.9-1 6 0 2.2.3 4.2.9 6 .6 1.9 1.5 3.5 2.7 4.9 1.2 1.4 2.6 2.5 4.3 3.3 1.7.8 3.6 1.2 5.8 1.2.9 0 1.8-.1 2.6-.3.8-.2 1.6-.5 2.3-.8.7-.3 1.3-.8 1.9-1.2.6-.5 1-1 1.4-1.6v3.5h5.3V73.3H133v4.6h7.7v.3c0 .6-.1 1.3-.3 2.1-.2.8-.6 1.5-1.1 2.1-.5.6-1.3 1.2-2.2 1.6-.9.4-2 .6-3.4.6s-2.6-.3-3.6-.8c-1-.6-1.9-1.3-2.5-2.2-.7-.9-1.1-2-1.5-3.1-.3-1.2-.5-2.4-.5-3.7v-.2zm-63.4-8.8c1.4.6 2.9-.1 3.4-1.4.6-1.3-.1-2.9-1.4-3.4-1.3-.5-2.9.1-3.4 1.4-.6 1.3.1 2.9 1.4 3.4m-6 3.5c1.4.6 2.9-.1 3.4-1.4.6-1.3-.1-2.9-1.4-3.4-1.3-.5-2.9.1-3.4 1.4-.5 1.3.1 2.9 1.4 3.4m-1.7 6.6c1.4.6 2.9-.1 3.4-1.4.6-1.3-.1-2.9-1.4-3.4-1.3-.5-2.9.1-3.4 1.4-.6 1.4.1 2.9 1.4 3.4m14.3-8c1.4.6 2.9-.1 3.4-1.4.6-1.3-.1-2.9-1.4-3.4-1.3-.5-2.9.1-3.4 1.4-.5 1.3.1 2.9 1.4 3.4M93 65.8c-1.4.6-2.9-.1-3.4-1.4-.6-1.3.1-2.9 1.4-3.4 1.3-.5 2.9.1 3.4 1.4.6 1.3 0 2.9-1.4 3.4m6 3.5c-1.4.6-2.9-.1-3.4-1.4-.6-1.3 0-2.9 1.4-3.4 1.3-.5 2.9.1 3.4 1.4.6 1.3-.1 2.9-1.4 3.4m1.8 6.6c-1.4.6-2.9-.1-3.4-1.4-.6-1.3.1-2.9 1.4-3.4 1.3-.5 2.9.1 3.4 1.4.5 1.4-.1 2.9-1.4 3.4m-14.4-8c-1.4.6-2.9-.1-3.4-1.4-.6-1.3.1-2.9 1.4-3.4 1.3-.5 2.9.1 3.4 1.4.6 1.3-.1 2.9-1.4 3.4m-7.3-6.8l3.3 1.7V58l-3.3 1-.3-.3 1.3-4.2h-4.8l1.3 4.2-.3.3-3.4-1v4.9l3.3-1.7.3.3-1.9 5.8c-.1.3-.1.6-.1.9 0 1.6 1.2 2.8 2.6 3.1h1c1.5-.2 2.7-1.5 2.7-3.1 0-.3 0-.6-.1-.9l-1.9-5.8c0-.1.2-.2.3-.4m-1.4 28.2c6.3 0 12.3.4 17.6 1.2 1.5-6.4 3.4-10 5.3-12.6L97 76.7c.4 1.8.4 2.7 0 3.8-.6-.6-1.2-1.6-1.6-3.3L93.7 83c1.1-.7 1.9-1.2 2.8-1.2-1.7 3.6-3.7 4.5-5 4.2-1.6-.3-2.4-1.8-2.1-3 .4-1.7 2.2-2.2 3-.2 1.6-3.3-1.1-4.3-2.9-3.3 2.7-2.7 3-5.1.8-7.9-3 2.3-3.1 4.6-1.7 7.8-1.8-2-4.5-.9-3.5 2.3 1.3-2 3-.7 2.7 1.1-.2 1.6-2.4 2.9-5.1 2.7-3.8-.3-4.1-3-4.2-5.2.9-.2 2.6.7 4.1 2.7l.5-6.1c-1.6 1.6-3 2-4.6 2 .5-1.7 3-4.4 3-4.4h-7.6s2.4 2.7 3 4.4c-1.6-.1-3-.4-4.6-2l.5 6.1c1.5-2 3.2-2.9 4.1-2.7-.1 2.2-.3 4.8-4.2 5.2-2.7.2-4.8-1.1-5.1-2.7-.3-1.9 1.4-3.1 2.7-1.1 1-3.3-1.8-4.3-3.5-2.3 1.4-3.2 1.3-5.5-1.7-7.8-2.2 2.9-1.9 5.3.8 7.9-1.8-1-4.5.1-2.9 3.3.8-2 2.6-1.6 3 .2.3 1.2-.5 2.7-2.1 3-1.3.2-3.4-.7-5-4.2.9 0 1.7.5 2.8 1.2L60 77.2c-.4 1.6-1 2.7-1.6 3.3-.4-1.2-.3-2 0-3.8L54.8 78c1.9 2.6 3.7 6.2 5.3 12.6 5.3-.8 11.2-1.3 17.6-1.3M302.3 69v20.7h-2.9V65.9h4.2L316 85.5V65.9h2.9v23.8h-3.6l-13-20.7zm36.9 12.2c0 5.1-3.1 8.8-7.8 8.8-4.7 0-7.8-3.7-7.8-8.8 0-5.2 3.1-8.8 7.8-8.8 4.7 0 7.8 3.6 7.8 8.8zm-2.9.1v-.2c0-3.4-1.7-6.3-4.9-6.3s-4.9 2.9-4.9 6.3v.2c0 3.3 1.7 6.3 4.9 6.3s4.9-3 4.9-6.3zm11.5 4.1c0 1.1.2 2.1 2.2 2.1.5 0 1.6-.1 2.1-.2l.3 2.4s-1.6.2-3 .2c-2.7 0-4.4-1.1-4.4-3.9V75.1h-3.2v-2.4h3.2v-5.5l2.8-1v6.5h4.7v2.4h-4.7v10.3zm9.9-19.5c1.1 0 2 1 2 2.1 0 1.2-.9 2.1-2 2.1-1.2 0-2.1-.9-2.1-2.1 0-1.2.9-2.1 2.1-2.1zm1.3 23.8h-2.8v-17h2.8v17zm9.5-17h3.4v2.4h-3.4v14.5h-2.8V75.1h-2.8v-2.4h2.8v-3.2c0-2.9 2-4 4.7-4 1.4 0 2.3.2 2.7.2l-.2 2.4c-.6-.1-1.9-.1-2.4-.1-1.6 0-2 1-2 2v2.7zm5.3 0h3.2l4.2 14 4-14h3.1l-6.2 19.5c-.7 2.4-2.4 3-4.5 3-.9 0-1.9-.1-3-.3l.4-2.4s1.2.2 2.2.2c1.2 0 1.9-.5 2.1-1.7l.2-.8-5.7-17.5z"
     id="path2026" />
  <path
     class="st5"
     d="M55 534h190.9v60.7H55z"
     id="path2028" />
  <path
     class="st6"
     d="M585 268.9v211.7H55.1V268.9H585m2-2H53.1v215.7H587V266.9z"
     id="path2036" />
  <path
     class="st2"
     d="M0 636h960v4H0z"
     id="path2038" />
  <path
     class="st2"
     d="M4 640V40h952v600h4V36H0v604z"
     id="path2040" />
  <text
     xml:space="preserve"
     id="text2353"
     style="white-space:pre;shape-inside:url(#rect2355);display:inline;fill:#000000" />
  <text
     xml:space="preserve"
     style="font-size:34.6667px;fill:#ffffff"
     x="115.93218"
     y="578.30511"
     id="text2361"><tspan
       id="tspan2359"
       x="115.93218"
       y="578.30511"
       style="font-style:normal;font-variant:normal;font-weight:normal;font-stretch:normal;font-size:34.6667px;font-family:'jf-openhuninn-1.1';-inkscape-font-specification:'jf-openhuninn-1.1';fill:#ffffff"
       sodipodi:role="line">保存</tspan></text>
  <text
     xml:space="preserve"
     style="font-style:normal;font-variant:normal;font-weight:normal;font-stretch:normal;font-size:34.6667px;font-family:'jf-openhuninn-1.1';-inkscape-font-specification:'jf-openhuninn-1.1';fill:#000000"
     x="54.624737"
     y="174.69431"
     id="text2517"><tspan
       sodipodi:role="line"
       id="tspan2515"
       x="54.624737"
       y="174.69431">新增簡訊樣板內容</tspan></text>
  <text
     xml:space="preserve"
     style="font-style:normal;font-variant:normal;font-weight:normal;font-stretch:normal;font-size:29.3333px;font-family:'jf-openhuninn-1.1';-inkscape-font-specification:'jf-openhuninn-1.1';fill:#000000"
     x="53.692158"
     y="251.20268"
     id="text2653"><tspan
       sodipodi:role="line"
       id="tspan2651"
       x="53.692158"
       y="251.20268"
       style="font-size:29.3333px">訊息</tspan></text>
  <text
     xml:space="preserve"
     style="font-style:normal;font-variant:normal;font-weight:normal;font-stretch:normal;font-size:29.3333px;font-family:'jf-openhuninn-1.1';-inkscape-font-specification:'jf-openhuninn-1.1';fill:#000000"
     x="617.46002"
     y="292.4306"
     id="text4198"><tspan
       sodipodi:role="line"
       id="tspan4196"
       x="617.46002"
       y="292.4306" /></text>
  <g
     id="g5884">
    <rect
       style="fill:#ffd419;fill-opacity:1;stroke-width:1.03594"
       id="rect5793"
       width="84.373421"
       height="27.804876"
       x="124.64253"
       y="288.59543"
       inkscape:label="rect5793" />
    <rect
       style="fill:#ffd419;fill-opacity:1;stroke-width:1.48159"
       id="rect5793-7"
       width="172.582"
       height="27.804876"
       x="86.29097"
       y="382.07733" />
    <rect
       style="fill:#ffd419;fill-opacity:1;stroke-width:1.082"
       id="rect5793-7-3"
       width="92.043739"
       height="27.804876"
       x="184.08742"
       y="429.05801" />
    <text
       xml:space="preserve"
       style="font-style:normal;font-variant:normal;font-weight:normal;font-stretch:normal;font-size:29.3333px;line-height:1.6;font-family:'jf-openhuninn-1.1';-inkscape-font-specification:'jf-openhuninn-1.1';fill:#000000"
       x="72.867935"
       y="310.64758"
       id="text4202"><tspan
         sodipodi:role="line"
         id="tspan4200"
         x="72.867935"
         y="310.64758">嗨 ((name)),</tspan><tspan
         sodipodi:role="line"
         x="72.867935"
         y="357.58087"
         id="tspan4204">我正在使用 Notify。今天是</tspan><tspan
         sodipodi:role="line"
         x="72.867935"
         y="404.51413"
         id="tspan4208">((day of week))，我喜愛的</tspan><tspan
         sodipodi:role="line"
         x="72.867935"
         y="451.44742"
         id="tspan4212">色系為 ((colour))。</tspan></text>
  </g>
</svg>
