<?xml version="1.0" encoding="UTF-8" standalone="no"?>
<svg
   id="Layer_1"
   viewBox="0 0 960 640"
   version="1.1"
   sodipodi:docname="02-reporting.svg"
   inkscape:version="1.2.1 (9c6d41e4, 2022-07-14)"
   xmlns:inkscape="http://www.inkscape.org/namespaces/inkscape"
   xmlns:sodipodi="http://sodipodi.sourceforge.net/DTD/sodipodi-0.dtd"
   xmlns="http://www.w3.org/2000/svg"
   xmlns:svg="http://www.w3.org/2000/svg">
  <defs
     id="defs2719" />
  <sodipodi:namedview
     id="namedview2717"
     pagecolor="#ffffff"
     bordercolor="#000000"
     borderopacity="0.25"
     inkscape:showpageshadow="2"
     inkscape:pageopacity="0.0"
     inkscape:pagecheckerboard="0"
     inkscape:deskcolor="#d1d1d1"
     showgrid="false"
     inkscape:zoom="1.6458333"
     inkscape:cx="484.25316"
     inkscape:cy="180.1519"
     inkscape:window-width="1680"
     inkscape:window-height="997"
     inkscape:window-x="0"
     inkscape:window-y="25"
     inkscape:window-maximized="1"
     inkscape:current-layer="Layer_1" />
  <style
     id="style2682">.st0{fill:#DADADA;} .st1{fill:#FFFFFF;} .st2{fill:#0B0B0B;} .st3{fill:#1d70b8;} .st4{fill:#00703c;} .st5{fill:none;stroke:#8C8C8C;stroke-miterlimit:10;}</style>
  <path
     class="st0"
     d="M0 40V10C0 4.5 4.5 0 10 0h940c5.5 0 10 4.5 10 10v30"
     id="path2684" />
  <circle
     class="st1"
     cx="25.4"
     cy="20"
     r="8.5"
     id="circle2686" />
  <circle
     class="st1"
     cx="49.1"
     cy="20"
     r="8.5"
     id="circle2688" />
  <circle
     class="st1"
     cx="72.9"
     cy="20"
     r="8.5"
     id="circle2690" />
  <path
     class="st2"
     d="M1 40h958v65H1z"
     id="path2692" />
  <path
     class="st1"
     d="M267 59.7l-10.7 13v-13h-6.1v30h6.1v-9.1l3.9-4.3 7.9 13.4h7l-11-18.1 10.4-11.9zm-37.4 24.6c-.8-.3-1.4-.6-2-1.2-.6-.5-1-1.2-1.3-2-.3-.8-.5-1.7-.5-2.8V59.7h-6v19.5c0 1.7.3 3.2.9 4.5.6 1.4 1.5 2.5 2.5 3.4 1.1.9 2.4 1.7 3.9 2.2 1.5.5 3.1.8 4.9.8 1.8 0 3.4-.3 4.9-.8 1.5-.5 2.8-1.2 3.9-2.2 1.1-.9 1.9-2.1 2.5-3.4.6-1.4.9-2.9.9-4.5V59.7h-6v18.6c0 1.1-.2 2-.5 2.8-.3.8-.8 1.5-1.3 2-.6.5-1.2.9-2 1.2-.8.3-1.6.4-2.5.4-.7 0-1.5-.2-2.3-.4m-21.9 3.5c.2.5.5.9.8 1.2.3.3.8.6 1.2.8.5.2 1 .3 1.5.3s1-.1 1.5-.3c.5-.2.9-.5 1.2-.8.3-.3.6-.8.8-1.2.2-.5.3-1 .3-1.5s-.1-1-.3-1.5c-.2-.5-.5-.9-.8-1.2-.3-.3-.8-.6-1.2-.8-.5-.2-.9-.3-1.5-.3-.5 0-1 .1-1.5.3-.5.2-.9.5-1.2.8-.3.3-.6.7-.8 1.2-.2.5-.3.9-.3 1.5s.1 1 .3 1.5m-9.6 1.9l8.5-30h-6.7l-5.7 22.6h-.2l-5.8-22.6h-6.8l8.5 30zm-36.8-5.8c-1-.5-1.8-1.2-2.5-2.1-.7-.9-1.2-1.9-1.5-3.1-.3-1.2-.5-2.5-.5-3.9v-.2c0-1.4.2-2.7.5-3.9.3-1.2.9-2.2 1.5-3.1.7-.9 1.5-1.6 2.5-2.1s2.2-.7 3.5-.7c1.3 0 2.5.2 3.5.7 1 .5 1.8 1.2 2.5 2.1.7.9 1.2 1.9 1.5 3.1.3 1.2.5 2.5.5 3.9v.2c0 1.4-.2 2.7-.5 3.9-.3 1.2-.9 2.2-1.5 3.1-.7.9-1.5 1.6-2.5 2.1s-2.2.7-3.5.7c-1.3.1-2.5-.2-3.5-.7m-2.5-23.4c-1.8.8-3.3 1.9-4.5 3.3-1.2 1.4-2.2 3-2.8 4.9-.6 1.9-1 3.9-1 6 0 2.2.3 4.2 1 6 .6 1.9 1.6 3.5 2.8 4.9 1.2 1.4 2.7 2.5 4.5 3.3 1.8.8 3.8 1.2 6 1.2s4.2-.4 6-1.2c1.8-.8 3.3-1.9 4.5-3.3 1.2-1.4 2.2-3 2.8-4.9.6-1.9 1-3.9 1-6s-.3-4.2-1-6c-.6-1.9-1.6-3.5-2.8-4.9-1.2-1.4-2.7-2.5-4.5-3.3-1.8-.8-3.8-1.2-6-1.2-2.3 0-4.3.4-6 1.2m-33.1 14.1c0-1.3.2-2.5.5-3.7.3-1.2.8-2.2 1.5-3.1.7-.9 1.5-1.6 2.5-2.2 1-.6 2.2-.8 3.6-.8.9 0 1.7.1 2.4.3.7.2 1.4.5 1.9.9.6.4 1.1.9 1.5 1.4.4.5.8 1.1 1.1 1.8l5.3-3c-.5-1-1.2-2-2-2.9-.8-.9-1.7-1.6-2.8-2.2-1.1-.6-2.2-1.1-3.5-1.4-1.3-.3-2.6-.5-4-.5-2.2 0-4.2.4-5.9 1.2-1.8.8-3.3 1.9-4.5 3.3-1.2 1.4-2.2 3-2.9 4.9-.7 1.9-1 3.9-1 6 0 2.2.3 4.2.9 6 .6 1.9 1.5 3.5 2.7 4.9 1.2 1.4 2.6 2.5 4.3 3.3 1.7.8 3.6 1.2 5.8 1.2.9 0 1.8-.1 2.6-.3.8-.2 1.6-.5 2.3-.8.7-.3 1.3-.8 1.9-1.2.6-.5 1-1 1.4-1.6v3.5h5.3V73.3H133v4.6h7.7v.3c0 .6-.1 1.3-.3 2.1-.2.8-.6 1.5-1.1 2.1-.5.6-1.3 1.2-2.2 1.6-.9.4-2 .6-3.4.6s-2.6-.3-3.6-.8c-1-.6-1.9-1.3-2.5-2.2-.7-.9-1.1-2-1.5-3.1-.3-1.2-.5-2.4-.5-3.7v-.2zm-63.4-8.8c1.4.6 2.9-.1 3.4-1.4.6-1.3-.1-2.9-1.4-3.4-1.3-.5-2.9.1-3.4 1.4-.6 1.3.1 2.9 1.4 3.4m-6 3.5c1.4.6 2.9-.1 3.4-1.4.6-1.3-.1-2.9-1.4-3.4-1.3-.5-2.9.1-3.4 1.4-.5 1.3.1 2.9 1.4 3.4m-1.7 6.6c1.4.6 2.9-.1 3.4-1.4.6-1.3-.1-2.9-1.4-3.4-1.3-.5-2.9.1-3.4 1.4-.6 1.4.1 2.9 1.4 3.4m14.3-8c1.4.6 2.9-.1 3.4-1.4.6-1.3-.1-2.9-1.4-3.4-1.3-.5-2.9.1-3.4 1.4-.5 1.3.1 2.9 1.4 3.4M93 65.8c-1.4.6-2.9-.1-3.4-1.4-.6-1.3.1-2.9 1.4-3.4 1.3-.5 2.9.1 3.4 1.4.6 1.3 0 2.9-1.4 3.4m6 3.5c-1.4.6-2.9-.1-3.4-1.4-.6-1.3 0-2.9 1.4-3.4 1.3-.5 2.9.1 3.4 1.4.6 1.3-.1 2.9-1.4 3.4m1.8 6.6c-1.4.6-2.9-.1-3.4-1.4-.6-1.3.1-2.9 1.4-3.4 1.3-.5 2.9.1 3.4 1.4.5 1.4-.1 2.9-1.4 3.4m-14.4-8c-1.4.6-2.9-.1-3.4-1.4-.6-1.3.1-2.9 1.4-3.4 1.3-.5 2.9.1 3.4 1.4.6 1.3-.1 2.9-1.4 3.4m-7.3-6.8l3.3 1.7V58l-3.3 1-.3-.3 1.3-4.2h-4.8l1.3 4.2-.3.3-3.4-1v4.9l3.3-1.7.3.3-1.9 5.8c-.1.3-.1.6-.1.9 0 1.6 1.2 2.8 2.6 3.1h1c1.5-.2 2.7-1.5 2.7-3.1 0-.3 0-.6-.1-.9l-1.9-5.8c0-.1.2-.2.3-.4m-1.4 28.2c6.3 0 12.3.4 17.6 1.2 1.5-6.4 3.4-10 5.3-12.6L97 76.7c.4 1.8.4 2.7 0 3.8-.6-.6-1.1-1.6-1.6-3.3L93.7 83c1.1-.7 1.9-1.2 2.8-1.2-1.7 3.6-3.7 4.5-5.1 4.2-1.6-.3-2.4-1.8-2.1-3 .4-1.7 2.2-2.2 3-.2 1.6-3.3-1.1-4.3-2.9-3.3 2.7-2.7 3-5.1.8-7.9-3 2.3-3.1 4.6-1.7 7.8-1.8-2-4.5-.9-3.5 2.3 1.3-2 3-.7 2.7 1.1-.2 1.6-2.4 2.9-5.1 2.7-3.8-.3-4.1-3-4.2-5.2.9-.2 2.6.7 4.1 2.7l.5-6.1c-1.6 1.6-3 2-4.6 2 .5-1.7 3-4.4 3-4.4h-7.5s2.4 2.7 3 4.4c-1.6-.1-3-.4-4.6-2l.5 6.1c1.5-2 3.2-2.9 4.1-2.7-.1 2.2-.3 4.8-4.2 5.2-2.7.2-4.8-1.1-5.1-2.7-.3-1.9 1.4-3.1 2.7-1.1 1-3.3-1.8-4.3-3.5-2.3 1.4-3.2 1.3-5.5-1.7-7.8-2.2 2.9-1.9 5.3.8 7.9-1.8-1-4.5.1-2.9 3.3.8-2 2.6-1.6 3 .2.3 1.2-.5 2.7-2.1 3-1.3.2-3.4-.7-5-4.2.9 0 1.7.5 2.8 1.2L60 77.2c-.4 1.6-1 2.7-1.6 3.3-.4-1.2-.3-2 0-3.8L54.8 78c1.9 2.6 3.7 6.2 5.3 12.6 5.3-.8 11.2-1.3 17.6-1.3M302.3 69v20.7h-2.9V65.9h4.2L316 85.5V65.9h2.9v23.8h-3.6l-13-20.7zm36.9 12.2c0 5.1-3.1 8.8-7.8 8.8-4.7 0-7.8-3.7-7.8-8.8 0-5.2 3.1-8.8 7.8-8.8 4.7 0 7.8 3.6 7.8 8.8zm-2.9.1v-.2c0-3.4-1.7-6.3-4.9-6.3s-4.9 2.9-4.9 6.3v.2c0 3.3 1.7 6.3 4.9 6.3s4.9-3 4.9-6.3zm11.5 4.1c0 1.1.2 2.1 2.2 2.1.5 0 1.6-.1 2.1-.2l.3 2.4s-1.6.2-3 .2c-2.7 0-4.4-1.1-4.4-3.9V75.1h-3.2v-2.4h3.2v-5.5l2.8-1v6.5h4.7v2.4h-4.7v10.3zm9.9-19.5c1.1 0 2 1 2 2.1 0 1.2-.9 2.1-2 2.1-1.2 0-2.1-.9-2.1-2.1 0-1.2.9-2.1 2.1-2.1zm1.3 23.8h-2.8v-17h2.8v17zm9.5-17h3.4v2.4h-3.4v14.5h-2.8V75.1h-2.8v-2.4h2.8v-3.2c0-2.9 2-4 4.7-4 1.4 0 2.3.2 2.7.2l-.2 2.4c-.6-.1-1.9-.1-2.4-.1-1.6 0-2 1-2 2v2.7zm5.3 0h3.2l4.2 14 4-14h3.1l-6.2 19.5c-.7 2.4-2.4 3-4.5 3-.9 0-1.9-.1-3-.3l.4-2.4s1.2.2 2.2.2c1.2 0 1.9-.5 2.1-1.7l.2-.8-5.7-17.5z"
     id="path2694" />
  <path
     class="st3"
     d="M53.1 224h410v210.7h-410zm443.8 0h410v210.7h-410z"
     id="path2696" />
  <path
     class="st4"
     d="M53.1 448.6h410v68.7h-410zm443.8 0h410v68.7h-410z"
     id="path2698" />
  <path
     class="st1"
     d="m 129,286.6 c 0,15.1 -6.9,29.5 -24,29.5 -9.3,0 -16.1,-4.7 -18.8,-11.4 l 10.9,-4.1 c 1.8,3.7 4.5,5.3 8.5,5.3 7.4,0 10.7,-6.9 11.2,-14.8 -2.7,3.4 -7.5,5.2 -12.3,5.2 -10.8,0 -18.7,-7.5 -18.7,-18 0,-11.2 8.3,-19.7 20.7,-19.7 13.6,0 22.5,9.9 22.5,26.6 z m -22.1,-18.1 c -5.8,0 -9.5,4.1 -9.5,9.3 0,5.1 3.7,9.2 9.5,9.2 5.8,0 9.6,-4.1 9.6,-9.2 0,-5.3 -3.8,-9.3 -9.6,-9.3 z m 72,6.1 c 0,3.9 -2,9 -7.7,11.6 6.5,2.6 9.3,7.9 9.3,13 0,11.7 -10.8,16.9 -22,16.9 -11.2,0 -22,-5.2 -22,-16.9 0,-5.1 2.9,-10.5 9.3,-13 -5.6,-2.6 -7.7,-7.7 -7.7,-11.6 0,-10.7 10,-16 20.4,-16 10.4,0.1 20.4,5 20.4,16 z m -10.4,24.3 c 0,-4.5 -4.1,-7.7 -10.1,-7.7 -5.9,0 -10.1,3.2 -10.1,7.7 0,4.6 4.1,7.7 10.1,7.7 5.9,-0.1 10.1,-3.1 10.1,-7.7 z M 167.2,275 c 0,-4.2 -3.7,-6.8 -8.8,-6.8 -5.1,0 -8.8,2.6 -8.8,6.8 0,4.5 3.5,6.9 8.8,6.9 5.3,0 8.8,-2.4 8.8,-6.9 z m 65.3,12.4 c 0,14.4 -6.6,28.7 -22.3,28.7 -15.7,0 -22.3,-14.3 -22.3,-28.7 0,-14.4 6.6,-28.7 22.3,-28.7 15.7,0 22.3,14.2 22.3,28.7 z m -11.8,1.1 v -2.2 c 0,-10.5 -3.5,-17.5 -10.5,-17.5 -7,0 -10.6,7 -10.6,17.5 v 2.2 c 0,10.4 3.6,17.4 10.6,17.4 7,0 10.5,-7 10.5,-17.4 z m 309.8,26.8 v -10 c 0,0.1 8.8,-6.3 19.4,-14.7 5.6,-4.4 8.6,-8.5 8.6,-13.7 0,-4.4 -2.8,-7.9 -8.1,-7.9 -6.6,0 -9,4.7 -9,10.3 l -11.6,-0.7 c 0,-12.6 8.5,-19.9 20.9,-19.9 11.1,0 19.9,6.9 19.9,18 0,5.8 -2.3,11.2 -8.5,17.2 -3.5,3.4 -8.3,6.9 -14.3,10.9 h 23.5 v 10.5 z m 64.4,-4.7 c 0,6.1 -3.3,12.8 -14.1,12.8 l -0.4,-3.7 c 1.4,-0.2 2.5,-0.5 3.4,-0.7 2.6,-0.7 3,-2 3,-3 v -0.2 c -4.6,0 -7.7,-2.6 -7.7,-7.1 0,-4 3.4,-7.4 7.5,-7.4 5,-0.1 8.3,4.1 8.3,9.3 z m 34.2,4.7 v -12.6 h -27.8 v -12 L 627,259.5 h 13.5 v 33 h 8.1 v 10.2 h -8.1 v 12.6 z m 0,-22.8 v -20.9 l -17.3,20.9 z m 26.9,-2.5 3.1,-30.6 h 35.5 v 10.2 h -25.8 l -1.3,11.1 c 2.6,-2.8 7.3,-4.1 11.2,-4.1 11.2,0 18.7,7.9 18.7,19.2 0,12.3 -9.7,20.2 -22,20.2 -10.1,0 -18.9,-4.8 -21.4,-14.4 l 10.8,-3.4 c 1.2,4.1 4.2,7.7 10.5,7.7 6.7,0 10.3,-4.5 10.3,-9.9 0,-5.3 -3.5,-9.7 -9.9,-9.7 -3.7,0 -6.9,1.8 -8.9,4.8 z m 93,-2.6 c 0,14.4 -6.6,28.7 -22.3,28.7 -15.7,0 -22.3,-14.3 -22.3,-28.7 0,-14.4 6.6,-28.7 22.3,-28.7 15.7,0 22.3,14.2 22.3,28.7 z m -11.8,1.1 v -2.2 c 0,-10.5 -3.5,-17.5 -10.5,-17.5 -7,0 -10.6,7 -10.6,17.5 v 2.2 c 0,10.4 3.6,17.4 10.6,17.4 7,0 10.5,-7 10.5,-17.4 z"
     id="path2700"
     sodipodi:nodetypes="ssccscssssssssssscssscscsssscsssssssssssssssssscccssccsscccccscccscscsccccccccccccccccccccccsssccsssccssssssssssss" />
  <path
     class="st1"
     d="m 84.4,494.6 v -2.7 c 1.7,-1.5 6.4,-5.4 8.1,-6.9 1.8,-1.6 3.4,-3.6 3.4,-6.2 0,-2.8 -1.8,-4.4 -4.4,-4.4 -2.8,0 -4.2,1.9 -4.4,4.7 l -2.9,-0.2 c 0.1,-4.4 3,-6.9 7.3,-6.9 4.4,0 7.3,2.6 7.3,7 0,3.3 -1.7,5.4 -6.7,9.7 l -4.1,3.5 h 11 v 2.5 H 84.4 Z m 29.4,0 v -5.8 H 102.6 V 486 l 10.1,-13.9 h 3.9 v 14.3 h 3.7 v 2.3 h -3.7 v 5.8 h -2.8 z m 0,-8.1 v -12 l -8.6,12 z"
     id="path2704"
     sodipodi:nodetypes="cccssccssccccccccccccccccccccccc" />
  <path
     class="st1"
     d="m 543.9,482.8 c 0,6.1 -2.4,12.2 -8.9,12.2 -3.2,0 -5.4,-1.4 -6.7,-3.6 l 2.8,-0.9 c 1,1.5 2.2,2.1 3.9,2.1 4.2,0 6,-4.4 6.1,-8.9 H 541 c -1,1.6 -2.9,3.2 -5.9,3.2 -4.3,0 -7.3,-3.1 -7.3,-7.3 0,-4.3 3.2,-7.6 7.7,-7.6 4.7,0 8.4,3.6 8.4,10.3 z m -8.2,-8.6 c -2.8,0 -5,2 -5,5.1 0,3.1 2.1,5.2 5,5.2 2.9,0 5,-2 5,-5.1 0,-3 -2.1,-5.2 -5,-5.2 z m 12.5,20.4 v -2.7 c 1.7,-1.5 6.4,-5.4 8.1,-6.9 1.8,-1.6 3.4,-3.6 3.4,-6.2 0,-2.8 -1.8,-4.4 -4.4,-4.4 -2.8,0 -4.2,1.9 -4.4,4.7 l -2.9,-0.2 c 0.1,-4.4 3,-6.9 7.3,-6.9 4.4,0 7.3,2.6 7.3,7 0,3.3 -1.7,5.4 -6.7,9.7 l -4.1,3.5 h 11 v 2.5 h -14.6 z"
     id="path2708"
     sodipodi:nodetypes="ssccsccsssssssssscccssccsscccccc" />
  <path
     class="st5"
     d="M251 576.6H53.1m853.8 0H709"
     id="path2710" />
  <path
     class="st0"
     d="M0 636h960v4H0z"
     id="path2712" />
  <path
     class="st0"
     d="M4 640V40h952v600h4V36H0v604z"
     id="path2714" />
  <text
     xml:space="preserve"
     style="font-size:34.6667px;font-family:'jf-openhuninn-1.1';-inkscape-font-specification:'jf-openhuninn-1.1';fill:#000000"
     x="53.268539"
     y="175.52414"
     id="text2723"><tspan
       sodipodi:role="line"
       id="tspan2721"
       x="53.268539"
       y="175.52414"
       style="font-size:34.6667px">最近 7 日內</tspan></text>
  <text
     xml:space="preserve"
     style="font-size:29.3333px;font-family:'jf-openhuninn-1.1';-inkscape-font-specification:'jf-openhuninn-1.1';fill:#ffffff"
     x="82.95919"
     y="406.06332"
     id="text2727"><tspan
       sodipodi:role="line"
       id="tspan2725"
       x="82.95919"
       y="406.06332">郵件</tspan></text>
  <text
     xml:space="preserve"
     style="font-size:29.3333px;font-family:'jf-openhuninn-1.1';-inkscape-font-specification:'jf-openhuninn-1.1';fill:#ffffff"
     x="129.96329"
     y="493.12781"
     id="text2727-5"><tspan
       sodipodi:role="line"
       id="tspan2725-12"
       x="129.96329"
       y="493.12781">錯誤</tspan></text>
  <text
     xml:space="preserve"
     style="font-size:29.3333px;font-family:'jf-openhuninn-1.1';-inkscape-font-specification:'jf-openhuninn-1.1';fill:#ffffff"
     x="575.80115"
     y="493.88852"
     id="text2727-5-6"><tspan
       sodipodi:role="line"
       id="tspan2725-12-6"
       x="575.80115"
       y="493.88852">錯誤</tspan></text>
  <text
     xml:space="preserve"
     style="font-size:29.3333px;font-family:'jf-openhuninn-1.1';-inkscape-font-specification:'jf-openhuninn-1.1';fill:#ffffff"
     x="527.62305"
     y="404.82758"
     id="text2727-7"><tspan
       sodipodi:role="line"
       id="tspan2725-1"
       x="527.62305"
       y="404.82758">簡訊</tspan></text>
  <text
     xml:space="preserve"
     style="font-size:29.3333px;font-family:'jf-openhuninn-1.1';-inkscape-font-specification:'jf-openhuninn-1.1';letter-spacing:7px;fill:#1d70b8;fill-opacity:1"
     x="356.20923"
     y="588.24042"
     id="text2824"><tspan
       sodipodi:role="line"
       id="tspan2822"
       x="356.20923"
       y="588.24042"
       style="fill:#1d70b8;fill-opacity:1"
       dx="0">與前幾週作比較</tspan></text>
</svg>
